<svg xmlns="http://www.w3.org/2000/svg" width="7.06cm" height="2.21cm" viewBox="0 0 200 62.72"><defs><style>.a,.b{fill:#fff;}.a{fill-rule:evenodd;}</style></defs><title>france</title><path class="a" d="M91.83,19.63A54.24,54.24,0,0,0,98.54,15a62.48,62.48,0,0,0-8.91-6.24c-.12-.07-.18-.14,0,0,3,1.36,6.67,2.62,9.5,4.48.07-3.13.23-6.18.3-8.13,0-.86.15-1.28.36,0,.46,2.78.84,5.75,1,8.55a32.63,32.63,0,0,1,9-2.16c.31,0,.37.19,0,.32l-2.34.88-5.35,2.23c-.25.1-.49.2-.71.31,2.39,3.19,3.12,6.66,4.53,9.74.12.24,0,.43-.14.17-1.94-2.82-3.79-6.3-6.12-8.88A16.09,16.09,0,0,1,97,18.09,21.61,21.61,0,0,1,92,19.85C90.89,20.13,91,20.14,91.83,19.63Z"/><path class="a" d="M86.49,12.61a2.13,2.13,0,0,0,.29-1.12.7.7,0,0,0-.56-.62,3.44,3.44,0,0,0-2.45,1c-2.43,1.77-4.84,3.63-7.29,5.37-1.27.91-3.73,2.52-4.57,3-.19.06.24-.36.37-.51.53-.63,1.08-1.28,1.62-1.88a35.55,35.55,0,0,0,2.71-3.56,1.44,1.44,0,0,0,.31-1.44,1.15,1.15,0,0,0-1.53-.4c-2.48,1.1-6.67,5.44-9.58,8.65C65,22,64.11,23,63.26,23.9c.54-.77,1.07-1.54,1.62-2.31s1-1.35,1.49-2l.81-1.14A2.71,2.71,0,0,0,67.79,17a1.12,1.12,0,0,0-.4-.78A1.31,1.31,0,0,0,66,16.11c-1.53.59-3.88,2.89-4.54,3.51C60,21,58.62,22.48,57.22,23.92c-.1.1-.39.41-.3.3.72-1,1.5-1.87,2.21-2.83.87-1.21,2-2.41,2.25-3.85.2-1.07-.58-1.71-1.57-1.2-2,1.06-5,5.17-6.51,7.37C52.39,25,51.62,26,50.73,27.3l-.13.14c.76-1.72,1.43-3.18,2.19-4.9.52-1.21,1.09-2.42,1.57-3.65.27-.67.69-1.9.14-2.58a1.15,1.15,0,0,0-1.82.14,6.4,6.4,0,0,0-.63.91,21.05,21.05,0,0,1-1.81,5.42l0,0h0s0,0,0,0,0,0,0,0a3.85,3.85,0,0,1-.24.95c-.54,1.63-1.35,3.52-3.84,3.57a1.07,1.07,0,0,1-.31,0c.13,1.38.5,3.27,1.77,4.35a4.44,4.44,0,0,0,1.21.73c.33-.19.72-.48.94-.61a1.54,1.54,0,0,0,1,.66c1.11.21,2.38-1.07,3-1.67,1.73-1.73,3.44-3.49,5.14-5.24.83-.87,1.66-1.76,2.49-2.64-1,1.51-2,3-3,4.51a2.16,2.16,0,0,0-.32,2.14,1.31,1.31,0,0,0,1.83.32c2.73-1.62,5.13-5.23,7.33-7.65,1.82-2,3.74-4,5.64-5.95a8.26,8.26,0,0,1,.88-.79c-.36.44-.72.87-1.06,1.32a20.16,20.16,0,0,0-2.87,3.86A1.12,1.12,0,0,0,70,21.84c.51.61,1.38.29,2-.05,1.77-1.05,3.58-2.3,5.33-3.53,1.29-.9,2.51-1.91,3.76-2.87l1.42-1.15c.64-.53,1.28-1.06,1.94-1.56l.79-.58a1.73,1.73,0,0,1,.7-.33c-1,2.64-3.11,4.85-3.67,7.64a1.5,1.5,0,0,0,.21,1.3c.65.7,1.89.23,2.58-.07.1-.05.11-.22-.06-.2-.59.07-1.34.41-1.92.12s-.2-1.41,0-1.77C83.84,16.59,85.43,14.74,86.49,12.61Z"/><path class="a" d="M68.9,39.45a4.08,4.08,0,0,0-2,1.41c-2.61,3.42-.62,9.38,4,9.28a7.31,7.31,0,0,0,4.88-2.33,19.55,19.55,0,0,0,3-3.63c-1.82-.73-2.86-3-3.1-4.79a8.91,8.91,0,0,1,1.25-6c.82-1.21,2.3-2.65,3.86-2.7a2.15,2.15,0,0,1,1.91,1.11c.86,1.45.73,3.7.46,5.15a22.33,22.33,0,0,1-1.61,5.28c4-.66,7.45-4.75,9.42-8,1.37-2.29,2.48-4.77,3.79-7.07a16.78,16.78,0,0,1,3.18-3.9c.21-.2.31,0,.19.13a27.45,27.45,0,0,0-2.61,4.11c-1.81,3.48-3,7.33-5.24,10.54-2,2.94-6,6.78-9.85,6.49a22.81,22.81,0,0,1-4.67,6A8,8,0,0,1,71,52.56a6.81,6.81,0,0,1-2.46-.32c-2.59-.79-4.15-3.56-4.42-6.1a7.73,7.73,0,0,1,1.18-5.09,4.84,4.84,0,0,1,3-2.07,1.91,1.91,0,0,1,1.14.06c.1.09,0,.17-.62.41Zm11,2.64a18.29,18.29,0,0,0,1.57-5.42A7.41,7.41,0,0,0,81.15,33s-.15-.25-.3-.28a.35.35,0,0,0-.18,0,1.74,1.74,0,0,0-.54.26,5.29,5.29,0,0,0-2,3.24,6.58,6.58,0,0,0,.8,5A2.14,2.14,0,0,0,79.89,42.09Z"/><path class="b" d="M15.06,58.18a1.2,1.2,0,0,1-.07-.46h0a4.27,4.27,0,0,1,.3-1.54h0l.12-.22h0c.1-.19.25-.45.42-.78h0l1.3-2.41h0c1-1.79,2-3.66,2.2-4h0c2.1-3.47,3.48-5.67,3.54-6.83h0l0-.22.22,0h.06a.88.88,0,0,1,.77.4h0a1.47,1.47,0,0,1,.21.8h0a2.51,2.51,0,0,1-.14.81h0c0,.07-.05.15-.08.23h0A10,10,0,0,1,28.28,43h0a16.28,16.28,0,0,1,2.69.23h0a.82.82,0,0,1,.33.13h0a.43.43,0,0,1,.19.35h0a.52.52,0,0,1-.36.45h0a2.18,2.18,0,0,1-.74.15h0c-4.11.29-5.29,1.06-8.23,4.7h0a91.54,91.54,0,0,0-6.24,9.1,1.56,1.56,0,0,0-.09.17l0,0a.35.35,0,0,1-.3.14h0a.51.51,0,0,1-.43-.3Z"/><path class="b" d="M31.44,48.81a8,8,0,0,0-3,9.9c1.58,3.54,6.28,4.09,9.43,2.8a7.16,7.16,0,0,0,3.53-2.89,5.06,5.06,0,0,0,2.52,3.73c1.19.7,1.47.36.65-.57-2.64-3-.88-5.89-.86-11.75a1.09,1.09,0,0,0-.64-1C39.25,46.84,34.83,46.59,31.44,48.81Zm6.25,10.75c-2.48,1.3-6,.82-7.2-1.71-1.34-2.72.18-5.87,2.13-7.29a8.64,8.64,0,0,1,9.09-.22.17.17,0,0,1,.1.15c0,.47-.16,2.12-.27,3C41.11,55.94,40.34,58.18,37.69,59.56Z"/><path class="b" d="M62.72,52.57c-3.79-6.62-6.85-7.58-9-7.1-2.76.63-2.95,5.86-3.06,6.24a24.81,24.81,0,0,0-1.68-5c-.63-1.14-1.56.32-1.25,1.54,1.28,5.06,1.65,7.43,2.83,10.86.46,1.34.78,2.17,1,2.1.42-.11.33-1.12.41-2.48.11-1.69,0-10.55,2.51-11.14s5.37,3.79,6.75,5.77c2.59,3.72,4.4,3.91,5.92,3.08C65.67,56.47,64,54.79,62.72,52.57Z"/><path class="b" d="M25.44,36.57c-.37-1.79-2.88-3.3-6.11-3.31a7.31,7.31,0,0,0-.81,0c-2.71.27-4.83,1.77-6.91,4.2a10.91,10.91,0,0,0-3.07-1.06l-.3,0a.61.61,0,0,0-.26,0,.35.35,0,0,0-.24.33.5.5,0,0,0,.21.38c.74.72,1.4,1.43,2.21,2.18C7.55,43,7,46.45.89,48.93c-.27.12-1,.44-.88.75.21.47,1.47.09,1.48.09h0c4.19-.61,7.76-4.63,10.75-8.74.93.68,1.88,1.3,2.79,2a.69.69,0,0,0,.39.14h0a.39.39,0,0,0,.29-.12.44.44,0,0,0,.11-.29.7.7,0,0,0-.1-.34,18.15,18.15,0,0,0-2.07-3.22c2.09-2.55,3.69-3.42,5.65-3.62,1.65-.17,3.9-.17,5.31,1,.25.19.43.5.63.46S25.45,36.59,25.44,36.57Z"/><path class="a" d="M43.14.73c-.4-.07-.93-.14-1.33-.17a13.26,13.26,0,0,0-5.34.53,20.07,20.07,0,0,0-2.88,1.19A20.71,20.71,0,0,1,42.33.92c.79,0,2,.31,2,1.29,0,1.46-2.84,2-3.87,2.19a1.59,1.59,0,0,1-.79,1.37L39.27,6C38,6.66,36.72,7.25,35.5,8l1.75-.7c.4-.17.65-.31,1.07-.45s1.45-.18,1.76.53a1.17,1.17,0,0,1-.52,1.57c-.38.21-.67.29-1.05.49q-3,1.56-5.89,3.14c-2.07,1.11-4.14,2.18-6.12,3.43,0,0-.1.07-.07.06,3.16-1.35,6.33-2.63,9.5-3.92A1.66,1.66,0,0,1,37.25,12a.91.91,0,0,1,.57.88c0,.61-.54.9-1,1.14l-1,.48-2.46,1.1c-1.2.54-2.41,1.06-3.6,1.61A34.61,34.61,0,0,0,26.13,19a6.44,6.44,0,0,0-2.05,1.73,12.18,12.18,0,0,0,2.23-.44c1.08-.32,2.16-.67,3.24-1,.89-.3,1.79-.67,2.69-.91a2.39,2.39,0,0,1,.65-.11.81.81,0,0,1,.74,1.24,2.59,2.59,0,0,1-.53.57,12,12,0,0,1-1.88,1.23c-.91.54-1.81,1.09-2.67,1.72a3.64,3.64,0,0,0-1.35,1.51c0,.13,0,.17.19.2,1.41.16,2.83-.16,4.25,0a2.44,2.44,0,0,1,2.14,1.11A3.69,3.69,0,0,1,33.84,28a12.39,12.39,0,0,0-.28,3.49,9.67,9.67,0,0,0,.27,1.61c.13.5.28,1,.43,1.5.08.26-.13.34-.23.07a14.55,14.55,0,0,1-1-3.11,22.73,22.73,0,0,1,.09-4.44c.11-1.6-1.19-1.51-2.41-1.46-.89,0-1.78.16-2.7.15a2.46,2.46,0,0,1-1.58-.38,1.2,1.2,0,0,1-.28-1.1,4.14,4.14,0,0,1,1.71-2.21c.76-.57,1.58-1.08,2.37-1.63l-2.34.79a23.71,23.71,0,0,1-3.23,1c-.87.13-2,.18-2.36-.74s.39-1.69.85-2.21l.26-.28a1.36,1.36,0,0,1-1.27-1.15,1.67,1.67,0,0,1,.13-.85c-1.44.1-2-1.26-1.33-2.45a5.49,5.49,0,0,1,1.21-1.29,1.41,1.41,0,0,1-.47-1.33c.26-1.56,2.81-3,4.2-4.08-.07-1.2,1.66-2.69,2.52-3.37A22.43,22.43,0,0,1,33,1.6,15.19,15.19,0,0,1,41.84.18a7.91,7.91,0,0,1,1.29.35c.61.23.75.33,0,.2ZM34.45,5.65a17.6,17.6,0,0,0-4.17,1.68,20.4,20.4,0,0,0-4,2.73c1.32-.75,2.62-1.52,3.94-2.24S33,6.37,34.45,5.65Zm-2-1.37A64.31,64.31,0,0,1,40.24,2.7l1.08-.21a19.22,19.22,0,0,0-7.21,1.09A15.35,15.35,0,0,0,32.5,4.28Z"/><path class="a" d="M37.88,23.72a34,34,0,0,0,7.92,2.14,3.13,3.13,0,0,0,2.65-.7A13.82,13.82,0,0,0,50.1,23c.16-.22.22-.23.24-.13a3.85,3.85,0,0,1-.24.95c-.54,1.63-1.35,3.52-3.84,3.57a1.07,1.07,0,0,1-.31,0c.13,1.38.5,3.27,1.77,4.35a7.11,7.11,0,0,0,4,1.35c2,.24,3.19.12,5.59.44,2.85.38,7.21,1.06,9.43,2.9.48.39.34.86-.31.63a29.11,29.11,0,0,0-4.26-1.18c-4.09-.92-9.64-.28-12.76-1.26a5.34,5.34,0,0,1-4.08-4.18,5.79,5.79,0,0,1,.14-3.09c-2.62-.34-6-2.45-7.65-3.4C37.68,23.83,37.62,23.63,37.88,23.72Z"/><path class="a" d="M44.59,19.33a4.6,4.6,0,0,0,1-.1,6.41,6.41,0,0,1,2.85-.59c1,.2,1.3,1,1.24,1.34a1.27,1.27,0,0,1-.28.62c-.09.12.08.62-.14.92s-.74.42-1.5.15-1.89-1-2.61-1.29a2.79,2.79,0,0,1-1-.51.69.69,0,0,1-.43.22c-.08,0-.07,0,0-.06a11.48,11.48,0,0,0,.95-1.28c.08-.09,0,0,0,.05a4.54,4.54,0,0,1-.19.53Zm1.91.61c.71.14,1.91.4,2.19.48s.16-.27-.57-.43A5.24,5.24,0,0,0,46.5,19.94Z"/><path class="b" d="M40.85,9,41,8.92a4.74,4.74,0,0,1,1.23-.62,3.69,3.69,0,0,1,3,.44,4.92,4.92,0,0,1,1,.9s.36.41.09.28a13.3,13.3,0,0,0-1.57-.68,5.49,5.49,0,0,0-1.73-.35,8.23,8.23,0,0,0-1.79.16l-.4.07C40.66,9.15,40.67,9.15,40.85,9Z"/><path class="b" d="M45.13,12.47a4.06,4.06,0,0,0-.65-.16,6.89,6.89,0,0,1-.77-.21.88.88,0,0,1-.12-.53c0-.1,0-.26,0-.35a3.18,3.18,0,0,0-1.64.29c-.08,0-.09,0-.05,0a1.7,1.7,0,0,1,1.3-.69,2.15,2.15,0,0,1,1.32.2,1.35,1.35,0,0,1,.59.76A1.67,1.67,0,0,1,45.13,12.47Z"/><path class="a" d="M51,14.53a2.24,2.24,0,0,0-.8-.41A2,2,0,0,1,50.81,16a1.74,1.74,0,0,1-.8,1,2.21,2.21,0,0,0-.66.63c-.06.11-.14.08-.14-.05a1.38,1.38,0,0,1,.55-.88,2.07,2.07,0,0,0,.5-.64c.2-.6-.34-1.1-.77-1.51a2.42,2.42,0,0,1-.28-.27A4,4,0,0,1,48.37,13a1.39,1.39,0,0,1,.14-1.41,2,2,0,0,1,1.32-.73,3.27,3.27,0,0,1,1.36.11,1.15,1.15,0,0,1,.76.54c0,.11,0,.12-.06.08a3.25,3.25,0,0,0-1.58-.28,1.78,1.78,0,0,0-1.19.58.65.65,0,0,0-.15.44,1.29,1.29,0,0,0,.19.57,1.07,1.07,0,0,0,.15.22h0l.31-.07A1.8,1.8,0,0,1,50,13a1.73,1.73,0,0,1,.71.12.8.8,0,0,1,.42.39,1,1,0,0,1,.08.53A1.19,1.19,0,0,1,51,14.53Zm-1.52-1.22.29.31a1.7,1.7,0,0,1,.06-.31A1.36,1.36,0,0,0,49.46,13.31Z"/><path class="b" d="M113.23,43.71h-1a2.16,2.16,0,0,0-2.25,2l-.55,2.73h2.94L112,50h-2.94l-2.5,12.56h-2L107.07,50h-1.7l.29-1.53h1.7l.57-2.85c.58-2.88,2.45-3.63,4.12-3.63h1.53Z"/><path class="b" d="M122,51a2.4,2.4,0,0,0-2-1,4.48,4.48,0,0,0-4.12,3.89l-1.73,8.7h-2L115,48.35h2l-.35,1.73a4.79,4.79,0,0,1,4-1.9,3.84,3.84,0,0,1,3.09,1.32Z"/><path class="b" d="M134.46,53l-1.91,9.56h-2l.32-1.41a5.31,5.31,0,0,1-4.07,1.58c-2.24,0-4.26-.92-4.26-3.46A4.51,4.51,0,0,1,123.83,56,5.63,5.63,0,0,1,128,54.46h4.15l.32-1.5a4.43,4.43,0,0,0,.11-1c0-1.39-1.09-2.11-2.85-2.11a4.62,4.62,0,0,0-3.83,1.7l-1.18-1.38a6.28,6.28,0,0,1,5.13-2c2,0,4.75.63,4.75,3.68A10.22,10.22,0,0,1,134.46,53Zm-6.25,3c-2.16,0-3.66,1.13-3.66,3.2,0,1.21.83,1.87,2.82,1.87a4.14,4.14,0,0,0,3-1.12,4.23,4.23,0,0,0,1.15-2.3l.32-1.65Z"/><path class="b" d="M148.89,53.59l-1.82,9h-2l1.76-8.76a7.33,7.33,0,0,0,.14-1.32A2.33,2.33,0,0,0,144.39,50c-1,0-3.51.46-4.2,3.89l-1.73,8.7h-2l2.82-14.2h2l-.31,1.58a5.31,5.31,0,0,1,4.2-1.75,3.72,3.72,0,0,1,3.89,4A7.56,7.56,0,0,1,148.89,53.59Z"/><path class="b" d="M161.35,51.55A3,3,0,0,0,158.56,50a4.32,4.32,0,0,0-3.14,1.38,8.15,8.15,0,0,0-1.84,4.09,10.38,10.38,0,0,0-.23,2.14c0,2.39,1.5,3.37,3.08,3.37a4.39,4.39,0,0,0,3.43-1.65L161,60.74a6.55,6.55,0,0,1-4.73,2c-3.34,0-5-2.24-5-5.1a13.07,13.07,0,0,1,.2-2.19c.86-4.72,3.57-7.25,7.23-7.25a4.58,4.58,0,0,1,4.09,2.1Z"/><path class="b" d="M175,56h-9.13a8.91,8.91,0,0,0-.18,1.79c0,1.87.93,3.23,3.06,3.23a5.42,5.42,0,0,0,4-1.68l1.21,1.36a7.36,7.36,0,0,1-5.36,2.07c-2.79,0-4.84-1.61-4.84-4.89,0-4.27,2-9.65,7-9.65,3,0,4.6,2.16,4.6,4.86A15.3,15.3,0,0,1,175,56Zm-4.35-6.07c-2.08,0-3.69,1.44-4.53,4.6h7.15a10,10,0,0,0,.12-1.44C173.37,50.85,172.1,49.88,170.63,49.88Z"/><path class="b" d="M178.69,62.55h-2.62l.55-2.74h2.59Z"/><path class="b" d="M189.55,43.88h-1a2.17,2.17,0,0,0-2.25,2l-.54,2.74h2.93l-.31,1.52H185.4l-2.51,12.56h-2l2.5-12.56h-1.7l.29-1.52h1.7l.58-2.85c.57-2.88,2.45-3.63,4.12-3.63h1.52Z"/><path class="b" d="M198.36,51.14a2.41,2.41,0,0,0-2-1A4.5,4.5,0,0,0,192.22,54l-1.72,8.7h-2l2.82-14.2h2l-.35,1.73a4.82,4.82,0,0,1,4-1.9A3.83,3.83,0,0,1,200,49.67Z"/></svg>