<?xml version="1.0" encoding="utf-8"?>
<!-- Generator: Adobe Illustrator 22.0.1, SVG Export Plug-In . SVG Version: 6.00 Build 0)  -->
<svg version="1.1" id="Layer_1" xmlns="http://www.w3.org/2000/svg" xmlns:xlink="http://www.w3.org/1999/xlink" x="0px" y="0px"
	 viewBox="0 0 785.7 404.7" style="enable-background:new 0 0 785.7 404.7;" xml:space="preserve">
<style type="text/css">
	.st0{fill:#FFFFFF;}
</style>
<title>france</title>
<g>
	<path class="st0" d="M231,396.6c2.9-1.8,6.1-4.4,9.5-7.6l4.7-4.5l1.9,16.5l15.5-0.1v-69.2c0-2.4-0.3-5.6-0.8-9.5
		c-0.5-3.6-1.8-7.2-3.9-10.7c-2-3.4-5.1-6.3-9.3-8.8c-4.1-2.5-10.1-3.7-17.7-3.7c-7.2,0-13.7,0.8-19.1,2.3
		c-5.5,1.6-10.1,3.3-13.8,5.2c-3.8,1.9-7.2,4.1-10,6.4v14.3h14.4l8.1-16.8l3.2-1.1c0.8-0.3,1.8-0.6,3-0.8c1.1-0.2,2.5-0.3,4-0.3
		c3,0,5.9,0.4,8.7,1.2c3,0.9,5.6,2.3,7.9,4.3c2.3,2,4.1,4.8,5.5,8.2c1.3,3.3,1.9,7.5,1.9,12.4v4.5h-3.2c-7.3,0-14.8,0.4-22.2,1.2
		c-7.2,0.7-13.8,2.4-19.5,5c-5.5,2.5-10.1,6.1-13.5,10.8c-3.4,4.6-5.1,10.8-5.1,18.5c0,4.4,0.8,8.3,2.4,11.7
		c1.6,3.4,3.8,6.3,6.5,8.6c2.8,2.4,6.1,4.2,9.8,5.5c3.7,1.3,7.8,2,12.1,2c1.2,0,2.8-0.1,4.7-0.2c1.7-0.1,3.7-0.6,6-1.4
		C225.4,399.8,228.1,398.4,231,396.6 M209.9,387.3c-2.1-1.1-4-2.5-5.5-4.2c-1.6-1.7-2.7-3.7-3.5-5.9c-0.8-2.1-1.2-4.3-1.2-6.4
		c0-8.7,4-15.1,11.5-18.6c6.9-3.2,16.9-4.8,30.6-4.6l3.2,0v24.5l-0.7,0.9c-2.4,3-5,5.7-7.8,8c-2.5,2-5.2,3.8-8.3,5.4
		c-3.3,1.7-6.9,2.6-10.7,2.6C214.7,389,212.1,388.4,209.9,387.3"/>
	<path class="st0" d="M87.2,286.1H91l-2.4-23.3H0v2.9l15.4,4.3v129.1h15v-64.5H64l7.9,14.2h2.5v-35.6h-2.5c-0.8,1.4-1.8,3-2.8,4.6
		c-1.6,2.7-3.1,5.1-4.3,7.4l-1.5,2.6H30.4v-58.4h47.8L87.2,286.1z"/>
	<path class="st0" d="M139.6,311c2.7-1.4,5.6-2.4,8.6-2.9l3.4-0.6l4.9,14.9h11.2l-1.5-24.4c-7.3-0.1-14.1,0.9-19.9,2.9
		c-6.9,2.5-12.6,5.1-16.9,7.9l-5.5,3.6l-1.6-13.4H98v3.6l10.7,6.9v90.8h16.1v-78.4l1.3-1.2c2.1-1.9,4.3-3.8,6.6-5.4
		C134.7,313.7,137,312.3,139.6,311"/>
	<path class="st0" d="M364.6,340.2l0,61.3h17.5l0-73.1c0-5.8-0.7-10.8-2.2-14.9c-1.4-4.1-3.3-7.4-5.6-9.9c-2.3-2.5-5-4.3-8.2-5.5
		c-7.8-2.9-17.7-2.3-28,1.6c-6.1,2.3-12.2,5.9-18.4,10.7l-4.5,3.5l-2.1-15.7h-27.4v5c1.3,1.2,2.8,2.5,4.5,3.9
		c2.2,1.8,4.3,3.5,6.2,5.1l1.1,1v88.3h17.8V327l1-1c3-2.9,6.2-5.6,9.5-8.2c2.9-2.1,6.1-4.1,9.5-5.8c6.2-3.1,13-3.6,18.3-1.6
		c2.5,0.9,4.5,2.6,6.2,5.1c1.5,2.3,2.7,5.4,3.5,9.5C364.3,328.9,364.6,334,364.6,340.2"/>
	<path class="st0" d="M492.7,383.5l-3.4-5.2c-1.8,1.4-3.8,2.6-5.8,3.8c-2.5,1.5-5.6,2.8-9.1,4c-7.9,2.6-16.6,2.2-24.9-0.3
		c-4.6-1.4-8.8-3.8-12.4-7.1c-3.6-3.3-6.5-7.6-8.8-12.7c-2.2-5.1-3.4-11.5-3.4-18.9c0-5.7,0.8-11,2.3-15.6c1.5-4.6,3.6-8.6,6-11.8
		c2.5-3.3,5.6-5.9,9-7.7c5.3-2.8,10.3-3.1,16.2-2.2c2.3,0.4,4.2,1,5.7,1.9l0.9,0.5l6.5,16.2h13.1v-22c-1.3-1-2.6-1.9-4.1-2.6
		c-2-1-4-1.8-6-2.4c-2-0.6-4-1-5.9-1.2c-2-0.2-3.7-0.3-5.2-0.3c-9.7,0-18.3,1.3-25.4,4c-7,2.6-12.9,6.3-17.4,11
		c-4.5,4.7-7.9,10.5-10.1,17c-1.2,3.5-3.4,10-3.4,22.4c0,7.2,1.2,13.9,3.4,19.8c2.3,6,5.5,11.1,9.6,15.4c4.1,4.3,9.2,7.6,15,10
		c5.8,2.4,12.3,3.6,19.3,3.6c5,0,9.8-1.1,14.4-3.2c4.8-2.2,9.2-4.7,13-7.4C485.7,389.8,489.3,386.8,492.7,383.5"/>
	<path class="st0" d="M575.3,397.4c3.7-2,7.4-4.3,10.8-6.8c2.8-2.1,5.3-4.1,7.5-6.1l-4.5-6.5c-2.7,1.4-5.4,2.7-8,3.9
		c-2.8,1.2-5.9,2.3-9.1,3.3c-3.4,1.1-6.7,1.6-9.9,1.6c-2.6,0-5.7-0.5-9.3-1.3c-3.7-0.9-7.3-2.7-10.7-5.2c-3.4-2.5-6.4-6-8.9-10.4
		c-2.5-4.4-4-10.1-4.4-17l-0.1-2.2l63.2-0.2c-0.2-17.7-3.7-31-10.3-39.4c-6.8-8.7-16-12.9-28.2-12.9c-7.7,0-14.5,1.3-20.2,3.8
		c-5.7,2.5-10.4,6.1-14.2,10.6c-3.7,4.5-6.6,10.1-8.4,16.5c-1.9,6.5-2.8,13.8-2.8,21.5c0,7.6,1.1,14.8,3.2,21.4
		c2.1,6.5,5.2,12.2,9.1,16.9c3.9,4.7,8.7,8.4,14.3,11.2c5.6,2.7,12,4.1,19,4.1c3.2,0,6.7-0.6,10.5-1.8
		C567.7,401.1,571.5,399.4,575.3,397.4 M528.7,336.7c0.3-2.8,0.9-5.7,1.7-8.8c0.8-3.1,2.2-6,4-8.5c1.8-2.5,4.1-4.6,6.8-6.2
		c2.8-1.7,6.3-2.5,10.4-2.5c3.6,0,6.8,0.8,9.5,2.3c2.6,1.5,4.8,3.5,6.5,5.9c1.7,2.4,3,5.2,3.8,8.4c0.8,3.1,1.4,6.2,1.7,9.5l0.2,2.2
		h-2.2h-42.6L528.7,336.7z"/>
	<path class="st0" d="M783.7,297.3c-18.4-1.3-33,5.2-41.8,10.9l-1.3-10.2h-57.7v-4.8c0-18.2,0-27.4,10.7-27.4
		c5.2,0,10.7,2.3,14,15.5h18l-2.1-19.4c0,0-10.2-11.1-31.4-11.1c-32.2,0-32,22.6-31.8,39.7v7.5h-12.1l0.4,16.1h11.7v90.7h22.6V314
		h32l5,5v85.3h23.6v-78.2c0,0,9.4-10,19.2-11.5l5.6,16.9h17.3L783.7,297.3z"/>
	<rect x="613.8" y="383.9" class="st0" width="19.3" height="19.3"/>
	<path class="st0" d="M570.3,123.5c14.8-8.6,28.8-18.3,42.2-29c-16.2-14.9-38.3-28.1-56.1-39.3c-0.7-0.4-1.1-0.8,0.1-0.3
		c18.8,8.5,41.9,16.5,59.8,28.2c0.4-19.7,1.4-38.9,1.9-51.2c0.2-5.4,0.9-8.1,2.3,0.2c2.9,17.5,5.3,36.2,6.5,53.8
		c18.1-7,37.4-12.1,56.8-13.6c1.9-0.2,2.3,1.2,0.3,2l-14.7,5.6l-33.6,14c-1.6,0.7-3.1,1.3-4.5,1.9c15.1,20.1,19.6,41.9,28.5,61.3
		c0.7,1.5,0.2,2.7-0.9,1.1c-12.2-17.8-23.9-39.7-38.5-55.9c-4.5,3.8-9.4,7.1-17.3,11.4c-10,5.5-21,8.3-31.9,11.1
		C564.3,126.6,564.9,126.6,570.3,123.5"/>
	<path class="st0" d="M536.6,79.3c0.9-1.9,2.1-4.7,1.8-7.1c-0.2-1.9-1.6-3.6-3.5-3.9c-5.9-1-11,3.2-15.4,6.4
		c-15.3,11.2-30.5,22.8-45.9,33.8c-8,5.7-23.5,15.8-28.7,18.7c-1.2,0.4,1.5-2.3,2.3-3.2c3.3-4,6.8-8,10.1-11.8
		c6.3-7.5,11.9-14.3,17.1-22.4c1.8-2.7,3.5-5.7,1.9-9.1c-1.7-3.5-6.1-4-9.6-2.5c-15.6,6.9-42,34.2-60.2,54.4
		c-5.3,5.9-10.7,11.8-16.1,17.7c3.4-4.8,6.7-9.7,10.2-14.5c3.1-4.3,6.3-8.5,9.4-12.8c1.9-2.6,3.3-4.6,5.1-7.2
		c1.8-2.6,3.7-5.6,3.8-8.9c0-1.8-1.2-3.7-2.5-4.9c-2.1-1.9-5.2-2-8.7-0.7c-9.6,3.7-24.4,18.2-28.6,22c-9.2,8.6-17.9,18-26.7,27.1
		c-0.6,0.6-2.4,2.6-1.9,1.9c4.5-6,9.4-11.7,13.9-17.8c5.5-7.6,12.5-15.1,14.2-24.2c1.3-6.7-3.6-10.8-9.8-7.5
		c-12.7,6.7-31.1,32.5-41,46.4c-5.7,8-10.6,14.5-16.2,22.6c-0.3,0.3-0.5,0.6-0.8,0.9c4.8-10.8,9-20,13.7-30.8
		c3.3-7.6,6.9-15.2,9.9-23c1.7-4.2,4.3-12,0.9-16.3c-3.2-4-8.5-2.6-11.4,0.9c-1.5,1.8-2.8,3.7-4,5.7c-1.5,12.1-7.3,24.7-11.4,34.1
		c0.1-0.1,0.3-0.1,0.3-0.1h0c0,0,0.1,0,0.1,0c0,0,0,0,0,0c0,0,0,0.1,0.1,0.1c0,0,0,0.1,0.1,0.2c0.2,0.8-0.9,4.3-1.5,6
		c-3.4,10.2-8.5,22.1-24.1,22.5c-1.1,0-0.9,0.1-2,0c0.8,8.7,3.1,20.6,11.2,27.4c2.3,2,4.9,3.4,7.6,4.6c2.1-1.2,4.5-3,5.9-3.8
		c0.9,1.6,3.5,3.7,6.2,4.2c7,1.3,15-6.7,18.8-10.5c10.9-10.9,21.6-21.9,32.3-33c5.2-5.5,10.4-11.1,15.6-16.6
		c-6.3,9.5-12.9,18.8-18.9,28.4c-2.3,3.7-4.5,9.2-2,13.4c2.5,4.2,7.7,4.2,11.5,2c17.1-10.2,32.3-32.9,46.1-48.1
		c11.4-12.6,23.5-25.4,35.5-37.4c1.8-1.9,3.5-3.4,5.5-4.9c-2.2,2.7-4.5,5.5-6.7,8.3c-6.1,7.6-13.8,15.2-18,24.3
		c-1,2.2-1.4,5.3,0.4,7.3c3.2,3.8,8.7,1.8,12.3-0.3c11.1-6.6,22.5-14.5,33.5-22.2c8.1-5.7,15.8-12,23.7-18.1c3-2.3,6-4.8,8.9-7.2
		c4.1-3.3,8-6.7,12.2-9.8c1.6-1.2,3.3-2.4,4.9-3.6c1.2-0.8,2.9-2,4.5-2.1c-6,16.6-19.6,30.5-23.1,48c-0.5,2.6-0.6,6,1.4,8.2
		c4,4.4,11.9,1.5,16.2-0.5c0.6-0.3,0.6-1.4-0.4-1.3c-3.7,0.5-8.5,2.6-12.1,0.8c-3.7-1.9-1.2-8.9-0.3-11.1
		C520,104.3,530,92.7,536.6,79.3"/>
	<path class="st0" d="M264,4.6c-2.5-0.5-5.9-0.9-8.4-1.1c-11.3-0.9-22.6-0.3-33.5,3.3c-6.2,2-12.2,4.6-18.1,7.5
		c17.4-6.8,36.3-9.7,55-8.6c4.9,0.3,12.5,2,12.6,8.1c0.1,9.2-17.9,12.3-24.3,13.8c0.2,3.3-2,6.7-5,8.6c-0.8,0.5-1.7,1-2.6,1.5
		c-7.9,4.2-16.1,7.8-23.7,12.4c3.7-1.4,7.4-2.9,11-4.4c2.5-1.1,4.1-2,6.7-2.8c3.3-1,9.1-1.1,11.1,3.3c1.7,3.9,0.4,7.9-3.3,9.9
		c-2.4,1.3-4.2,1.8-6.6,3.1c-12.4,6.5-24.7,13.1-37,19.7c-13,7-26,13.7-38.5,21.6c-0.1,0.1-0.6,0.4-0.4,0.4
		c19.9-8.5,39.8-16.5,59.8-24.7c2.8-1.1,5.4-2.1,8.3-0.8c2.1,0.9,3.6,2.7,3.6,5.5c0,3.8-3.4,5.7-6.4,7.2c-2.1,1-4.2,2-6.3,3
		c-5.1,2.3-10.3,4.6-15.5,6.9c-7.6,3.4-15.2,6.7-22.7,10.1c-7.7,3.5-15.4,6.8-22.7,11.2c-4.7,2.9-9.8,6.2-12.9,10.9
		c4.2-0.4,9.3-1.4,14-2.8c6.8-2,13.6-4.2,20.4-6.4c5.6-1.9,11.3-4.2,16.9-5.7c1.3-0.4,2.7-0.7,4.1-0.7c4.1,0,7.1,4,4.7,7.8
		c-0.9,1.4-2,2.5-3.3,3.6c-3.6,3.1-7.5,5.2-11.9,7.8c-5.7,3.4-11.4,6.8-16.8,10.8c-3.2,2.4-7.1,5.6-8.5,9.5
		c-0.3,0.8-0.1,1.1,1.2,1.2c8.9,1,17.8-1,26.7-0.1c5.2,0.5,11.1,1.9,13.5,7c1.7,3.6,1.2,8.7,0.4,13.5c-1.4,7.7-2.4,14.1-1.7,22
		c0.3,3.4,0.8,6.8,1.6,10.1c0.8,3.2,1.8,6.3,2.8,9.5c0.5,1.6-0.8,2.1-1.5,0.5c-2.5-6.4-5.5-12.7-6.4-19.6
		c-1.3-9.2-0.1-18.6,0.5-27.9c0.7-10.1-7.5-9.5-15.2-9.2c-5.6,0.2-11.2,1-17,1c-2.9,0-7.8-0.2-9.9-2.4c-1.9-1.9-2.2-4.4-1.7-6.9
		c1.2-5.8,6.3-10.6,10.7-13.9c4.8-3.6,9.9-6.8,14.9-10.2c-4.9,1.6-9.8,3.3-14.7,4.9c-6.6,2.2-14.2,5.3-20.3,6.3
		c-5.5,0.9-12.7,1.2-14.9-4.6c-1.8-4.9,2.5-10.6,5.4-13.9c0.6-0.6,1.1-1.2,1.6-1.8c-3.9-0.6-7.4-2.9-8-7.2c-0.2-1.8,0.1-3.7,0.9-5.4
		c-9.1,0.6-12.9-8-8.4-15.4c1.9-3.1,4.9-5.8,7.6-8.1c-2.3-2-3.5-5.1-2.9-8.4c1.6-9.8,17.7-18.7,26.4-25.6
		c-0.5-7.5,10.4-16.9,15.8-21.2c9-7.1,18.5-13.5,28.9-18.2c17.8-8,36.5-12.2,55.8-8.9c2.6,0.5,5.7,1.4,8.1,2.3
		C267.8,4.8,268.7,5.4,264,4.6 M209.4,35.5c-8.1,1.8-18.2,6.2-26.3,10.6c-8.9,4.9-17.9,10.4-25.3,17.2c8.3-4.7,16.4-9.6,24.8-14.1
		C191.4,44.5,200.5,40.1,209.4,35.5 M197.1,26.9c15.7-5,32.4-6.9,48.6-9.9c2.3-0.4,4.6-0.9,6.8-1.4c-15.3-0.5-31,1.6-45.4,6.9
		C203.8,23.8,200.4,25.3,197.1,26.9"/>
	<path class="st0" d="M230.9,149.2c16.3,5.7,32.5,11.7,49.8,13.5c6.1,0.6,12,0.1,16.7-4.4c4.1-4,7.2-9.2,10.4-13.9
		c1-1.4,1.4-1.4,1.5-0.8c0.2,0.8-0.9,4.3-1.5,6c-3.4,10.2-8.5,22.1-24.1,22.5c-1.1,0-0.9,0.1-2,0c0.8,8.7,3.1,20.6,11.2,27.4
		c7,5.9,16.1,7.5,25.1,8.5c12.8,1.5,20.1,0.7,35.2,2.8c17.9,2.4,45.3,6.7,59.3,18.2c3,2.5,2.1,5.4-2,4c-11-4-16.4-5.1-26.8-7.4
		c-25.7-5.8-60.6-1.8-80.2-7.9c-13.6-4.3-22.4-11.8-25.7-26.3c-1.3-6.8-1.3-13,0.9-19.4c-16.5-2.2-37.8-15.4-48.1-21.4
		C229.7,149.9,229.3,148.6,230.9,149.2"/>
	<path class="st0" d="M273.2,121.6c1.5-0.2,3.6,0.1,6.6-0.7c4.7-1.2,11.4-4.9,17.9-3.7c6.6,1.2,8.2,6,7.8,8.4
		c-0.4,2.3-1.2,3.3-1.8,4c-0.6,0.7,0.5,3.8-0.8,5.8c-1.4,1.9-4.7,2.6-9.5,0.9c-4.8-1.7-11.9-6.2-16.4-8.1c-2.7-1.1-5-2.1-6-3.2
		c-0.7,0.7-1.7,1.3-2.7,1.4c-0.5,0.1-0.4,0-0.1-0.4c2-2.1,4.3-5.5,6-8c0.4-0.6,0.2,0,0.1,0.3C274.1,118.9,273.7,120.3,273.2,121.6
		 M285.2,125.4c4.5,0.9,12,2.5,13.7,3.1c1.6,0.5,1-1.7-3.6-2.7C290.8,124.8,289.3,125.2,285.2,125.4"/>
	<path class="st0" d="M249.6,56.9c0.4-0.2,0.8-0.5,1.2-0.8c2.4-1.5,4.9-3.1,7.7-3.9c3.3-0.9,6.6-1.1,9.8-0.7
		c3.2,0.5,6.3,1.6,9.2,3.5c2.4,1.5,4.3,3.6,6.2,5.6c0.2,0.3,2.2,2.6,0.5,1.8c-3.3-1.6-6.5-3.2-9.9-4.3c-3.4-1.2-7-2.1-10.9-2.2
		c-3.8-0.2-7.5,0.4-11.3,1c-0.8,0.1-1.7,0.3-2.5,0.4C248.4,57.5,248.5,57.6,249.6,56.9"/>
	<path class="st0" d="M276.5,78.4c-0.8-0.3-2.4-0.7-4.1-1c-1.7-0.4-3.6-0.8-4.8-1.3c-0.7-1.1-0.8-2.2-0.8-3.3c0-0.7,0.1-1.7,0.3-2.2
		c-3.1-0.9-8.3,1-10.3,1.8c-0.5,0.2-0.5,0.1-0.3-0.3c1.7-2.8,5.2-4,8.2-4.4c3.1-0.4,6.3,0.1,8.3,1.3c1.9,1.2,3.4,3.3,3.7,4.8
		C277.1,75.3,276.9,77,276.5,78.4"/>
	<path class="st0" d="M313.3,91.4c-1-1.1-3.2-2-5-2.6c2.9,3.4,5.2,7.1,4,11.6c-0.7,2.9-2.9,4.5-5,6c-1.6,1.2-3.2,2.3-4.2,4
		c-0.4,0.6-0.9,0.5-0.9-0.3c0-2.1,1.7-3.9,3.5-5.6c1.3-1.3,2.6-2.6,3.1-4c1.3-3.8-2.1-6.9-4.8-9.5c-0.7-0.6-1.3-1.2-1.8-1.7
		c-2-2.1-4.2-4.8-5.3-7.7c-1.1-2.9-1.2-6,0.9-8.9c2-2.6,5-4,8.3-4.6c2.9-0.4,5.9-0.1,8.6,0.7c2,0.6,3.8,1.5,4.8,3.4
		c0.3,0.7,0.2,0.7-0.3,0.5c-3-1.3-6.6-2.1-10-1.7c-2.8,0.3-5.5,1.4-7.5,3.7c-0.7,0.8-1,1.8-0.9,2.8c0,1.2,0.5,2.5,1.1,3.6
		c0.3,0.5,0.6,0.9,1,1.4c0.5-0.1,1.3-0.3,2-0.5c0.8-0.2,1.6-0.3,2.3-0.3c1.7,0,3.2,0.2,4.5,0.8c1.2,0.5,2.1,1.3,2.6,2.4
		c0.5,1,0.6,2.2,0.5,3.3C314.5,89.3,313.9,90.5,313.3,91.4 M303.8,83.7c0.4,0.5,1.4,1.5,1.8,1.9c0-0.6,0.1-1.3,0.3-1.9
		C305.4,83.7,304.4,83.6,303.8,83.7"/>
</g>
</svg>
