<?xml version="1.0" encoding="utf-8"?>
<!-- Generator: Adobe Illustrator 22.0.1, SVG Export Plug-In . SVG Version: 6.00 Build 0)  -->
<svg version="1.1" id="Layer_1" xmlns="http://www.w3.org/2000/svg" xmlns:xlink="http://www.w3.org/1999/xlink" x="0px" y="0px"
	 viewBox="0 0 250 79" style="enable-background:new 0 0 250 79;" xml:space="preserve">
<style type="text/css">
	.st0{fill:#FFFFFF;}
</style>
<title>france</title>
<path class="st0" d="M43.5,236.7c2.3-1.4,4.6-2.9,6.7-4.6c-2.8-2.3-5.8-4.4-8.9-6.2c-0.1-0.1-0.2-0.1,0,0c3,1.4,6.7,2.6,9.5,4.5
	c0.1-3.1,0.2-6.2,0.3-8.1c0-0.9,0.1-1.3,0.4,0c0.5,2.8,0.8,5.7,1,8.5c2.9-1.1,5.9-1.9,9-2.2c0.3,0,0.4,0.2,0,0.3l-2.3,0.9l-5.3,2.2
	c-0.2,0.1-0.5,0.2-0.7,0.3c2.4,3.2,3.1,6.7,4.5,9.7c0.1,0.2,0,0.4-0.1,0.2c-1.9-2.8-3.8-6.3-6.1-8.9c-0.8,0.7-1.7,1.3-2.7,1.8
	c-1.6,0.8-3.3,1.4-5,1.8C42.6,237.2,42.7,237.2,43.5,236.7z"/>
<path class="st0" d="M38.2,229.7c0.2-0.3,0.3-0.7,0.3-1.1c0-0.3-0.3-0.6-0.6-0.6c-0.9,0-1.8,0.4-2.4,1c-2.4,1.8-4.8,3.6-7.3,5.4
	c-1.3,0.9-3.7,2.5-4.6,3c-0.2,0.1,0.2-0.4,0.4-0.5c0.5-0.6,1.1-1.3,1.6-1.9c1-1.1,1.9-2.3,2.7-3.6c0.4-0.4,0.5-0.9,0.3-1.4
	c-0.3-0.5-1-0.7-1.5-0.4c-2.5,1.1-6.7,5.4-9.6,8.6c-0.8,0.9-1.7,1.9-2.5,2.8c0.5-0.8,1.1-1.5,1.6-2.3s1-1.3,1.5-2l0.8-1.1
	c0.3-0.4,0.6-0.9,0.6-1.4c0-0.3-0.2-0.6-0.4-0.8c-0.4-0.3-0.9-0.3-1.4-0.1c-1.5,0.6-3.9,2.9-4.5,3.5c-1.5,1.4-2.8,2.9-4.2,4.3
	c-0.1,0.1-0.4,0.4-0.3,0.3c0.7-1,1.5-1.9,2.2-2.8c0.9-1.2,2-2.4,2.2-3.8c0.2-1.1-0.6-1.7-1.6-1.2c-2,1.1-5,5.2-6.5,7.4
	c-0.9,1.3-1.7,2.3-2.6,3.6l-0.1,0.1c0.8-1.7,1.4-3.2,2.2-4.9c0.5-1.2,1.1-2.4,1.6-3.6c0.3-0.7,0.7-1.9,0.1-2.6
	c-0.4-0.5-1.1-0.5-1.6-0.1c-0.1,0.1-0.1,0.1-0.2,0.2c-0.2,0.3-0.4,0.6-0.6,0.9c-0.4,1.9-1,3.7-1.8,5.4l0,0l0,0l0,0l0,0
	c0,0.3-0.1,0.6-0.2,0.9c-0.5,1.6-1.3,3.5-3.8,3.6c-0.1,0-0.2,0-0.3,0c0.1,1.4,0.5,3.3,1.8,4.3c0.4,0.3,0.8,0.6,1.2,0.7
	c0.3-0.2,0.7-0.5,0.9-0.6c0.2,0.3,0.6,0.6,1,0.7c1.1,0.2,2.4-1.1,3-1.7c1.7-1.7,3.4-3.5,5.1-5.2c0.8-0.9,1.7-1.8,2.5-2.6
	c-1,1.5-2,3-3,4.5c-0.5,0.6-0.6,1.4-0.3,2.1c0.4,0.6,1.2,0.7,1.8,0.3c0,0,0,0,0,0c2.7-1.6,5.1-5.2,7.3-7.6c1.8-2,3.7-4,5.6-5.9
	c0.3-0.3,0.6-0.5,0.9-0.8c-0.4,0.4-0.7,0.9-1.1,1.3c-1.1,1.2-2.1,2.5-2.9,3.9c-0.2,0.4-0.1,0.9,0.2,1.2c0.5,0.6,1.4,0.3,2,0
	c1.8-1,3.6-2.3,5.3-3.5c1.3-0.9,2.5-1.9,3.8-2.9l1.4-1.1c0.6-0.5,1.3-1.1,1.9-1.6l0.8-0.6c0.2-0.2,0.4-0.3,0.7-0.3
	c-1,2.6-3.1,4.8-3.7,7.6c-0.1,0.4-0.1,0.9,0.2,1.3c0.6,0.7,1.9,0.2,2.6-0.1c0.1,0,0.1-0.2-0.1-0.2c-0.6,0.1-1.3,0.4-1.9,0.1
	c-0.6-0.3-0.2-1.4,0-1.8C35.6,233.7,37.1,231.8,38.2,229.7z"/>
<path class="st0" d="M20.6,256.5c-0.8,0.3-1.5,0.7-2,1.4c-2.6,3.4-0.6,9.4,4,9.3c1.9-0.1,3.6-1,4.9-2.3c1.1-1.1,2.1-2.3,3-3.6
	c-1.8-0.7-2.9-3-3.1-4.8c-0.3-2.1,0.1-4.2,1.2-6c0.8-1.2,2.3-2.6,3.9-2.7c0.8,0,1.5,0.4,1.9,1.1c0.9,1.4,0.7,3.7,0.5,5.1
	c-0.3,1.8-0.9,3.6-1.6,5.3c4-0.7,7.4-4.7,9.4-8c1.4-2.3,2.5-4.8,3.8-7.1c0.9-1.5,1.9-2.8,3.2-3.9c0.2-0.2,0.3,0,0.2,0.1
	c-1,1.3-1.9,2.7-2.6,4.1c-1.8,3.5-3,7.3-5.2,10.5c-2,2.9-6,6.8-9.8,6.5c-1.2,2.2-2.8,4.3-4.7,6c-1.3,1.2-3,1.9-4.8,2
	c-0.8,0-1.7-0.1-2.5-0.3c-2.6-0.8-4.1-3.6-4.4-6.1c-0.2-1.8,0.2-3.6,1.2-5.1c0.7-1.1,1.8-1.8,3-2.1c0.4-0.1,0.8-0.1,1.1,0.1
	C21.3,256.2,21.2,256.3,20.6,256.5L20.6,256.5z M31.6,259.2c0.8-1.7,1.3-3.5,1.6-5.4c0.2-1.2,0.1-2.5-0.3-3.7c0,0-0.1-0.2-0.3-0.3
	c-0.1,0-0.1,0-0.2,0c-0.2,0.1-0.4,0.1-0.5,0.3c-1,0.8-1.8,1.9-2,3.2c-0.4,1.7-0.1,3.5,0.8,5C30.9,258.7,31.2,259,31.6,259.2
	L31.6,259.2z"/>
<path class="st0" d="M-33.1,275.2c-0.1-0.1-0.1-0.3-0.1-0.5l0,0c0-0.5,0.1-1,0.3-1.5l0,0l0.1-0.2l0,0c0.1-0.2,0.2-0.4,0.4-0.8l0,0
	l1.3-2.4l0,0c1-1.8,2-3.7,2.2-4l0,0c2.1-3.5,3.5-5.7,3.5-6.8l0,0v-0.2h0.2h0.1c0.3,0,0.6,0.1,0.8,0.4l0,0c0.1,0.2,0.2,0.5,0.2,0.8
	l0,0c0,0.3,0,0.5-0.1,0.8l0,0c0,0.1,0,0.1-0.1,0.2l0,0c1.4-0.6,2.9-1,4.4-1l0,0c0.9,0,1.8,0.1,2.7,0.2l0,0c0.1,0,0.2,0.1,0.3,0.1
	l0,0c0.1,0.1,0.2,0.2,0.2,0.3l0,0c0,0.2-0.2,0.4-0.4,0.4l0,0c-0.2,0.1-0.5,0.1-0.7,0.1l0,0c-4.1,0.3-5.3,1.1-8.2,4.7l0,0
	c-2.3,2.9-4.3,5.9-6.2,9.1c0,0.1-0.1,0.1-0.1,0.2l0,0c-0.1,0.1-0.2,0.1-0.3,0.1l0,0C-32.9,275.4-33,275.3-33.1,275.2L-33.1,275.2z"
	/>
<path class="st0" d="M-16.8,265.9c-3.3,2.1-4.5,6.3-3,9.9c1.6,3.5,6.3,4.1,9.4,2.8c1.5-0.6,2.7-1.6,3.5-2.9c0.2,1.6,1.1,2.9,2.5,3.7
	c1.2,0.7,1.5,0.4,0.6-0.6c-2.6-3-0.9-5.9-0.9-11.7c0-0.4-0.2-0.8-0.6-1C-9,263.9-13.4,263.6-16.8,265.9z M-10.5,276.6
	c-2.5,1.3-6,0.8-7.2-1.7c-1.3-2.7,0.2-5.9,2.1-7.3c2.7-1.8,6.3-1.9,9.1-0.2c0.1,0,0.1,0.1,0.1,0.1c0,0.5-0.2,2.1-0.3,3
	C-7.1,273-7.9,275.2-10.5,276.6z"/>
<path class="st0" d="M14.5,269.6c-3.8-6.6-6.8-7.6-9-7.1c-2.8,0.6-2.9,5.9-3.1,6.2c-0.4-1.7-0.9-3.4-1.7-5c-0.6-1.1-1.6,0.3-1.2,1.5
	c1.3,5.1,1.6,7.4,2.8,10.8c0.5,1.3,0.8,2.2,1,2.1c0.4-0.1,0.3-1.1,0.4-2.5c0.1-1.7,0-10.5,2.5-11.1s5.4,3.8,6.7,5.8
	c2.6,3.7,4.4,3.9,5.9,3.1C17.4,273.5,15.7,271.8,14.5,269.6z"/>
<path class="st0" d="M-22.8,253.6c-0.4-1.8-2.9-3.3-6.1-3.3c-0.3,0-0.5,0-0.8,0c-2.7,0.3-4.8,1.8-6.9,4.2c-1-0.5-2-0.9-3.1-1.1H-40
	c-0.1,0-0.2,0-0.3,0c-0.1,0-0.2,0.2-0.2,0.3c0,0.2,0.1,0.3,0.2,0.4c0.7,0.7,1.4,1.4,2.2,2.2c-2.6,3.7-3.2,7.2-9.3,9.6
	c-0.3,0.1-1,0.4-0.9,0.7c0.2,0.5,1.5,0.1,1.5,0.1l0,0c4.2-0.6,7.8-4.6,10.7-8.7c0.9,0.7,1.9,1.3,2.8,2c0.1,0.1,0.2,0.1,0.4,0.1l0,0
	c0.1,0,0.2,0,0.3-0.1c0.1-0.1,0.1-0.2,0.1-0.3c0-0.1,0-0.2-0.1-0.3c-0.6-1.1-1.3-2.2-2.1-3.2c2.1-2.5,3.7-3.4,5.6-3.6
	c1.6-0.2,3.9-0.2,5.3,1c0.2,0.2,0.4,0.5,0.6,0.5C-22.8,254.1-22.8,253.7-22.8,253.6z"/>
<path class="st0" d="M-5.1,217.8c-0.4-0.1-0.9-0.1-1.3-0.2c-1.8-0.2-3.6,0-5.3,0.5c-1,0.3-1.9,0.7-2.9,1.2c2.8-1.1,5.8-1.5,8.7-1.4
	c0.8,0,2,0.3,2,1.3c0,1.5-2.8,2-3.9,2.2c0,0.6-0.3,1.1-0.8,1.4l-0.4,0.2c-1.3,0.7-2.5,1.2-3.8,2l1.7-0.7c0.4-0.2,0.6-0.3,1.1-0.4
	c0.4-0.1,1.4-0.2,1.8,0.5c0.3,0.6,0.1,1.3-0.5,1.6c-0.4,0.2-0.7,0.3-1,0.5c-2,1-4,2.1-5.9,3.1c-2.1,1.1-4.1,2.2-6.1,3.4
	c0,0-0.1,0.1-0.1,0.1c3.2-1.3,6.3-2.6,9.5-3.9c0.4-0.2,0.9-0.3,1.3-0.1c0.4,0.1,0.6,0.5,0.6,0.9c0,0.6-0.5,0.9-1,1.1l-1,0.5
	l-2.5,1.1c-1.2,0.5-2.4,1.1-3.6,1.6c-1.2,0.5-2.5,1.1-3.6,1.8c-0.8,0.4-1.5,1-2,1.7c0.8-0.1,1.5-0.2,2.2-0.4c1.1-0.3,2.2-0.7,3.2-1
	c0.9-0.3,1.8-0.7,2.7-0.9c0.2-0.1,0.4-0.1,0.6-0.1c0.4,0,0.8,0.3,0.9,0.8c0,0.2,0,0.3-0.1,0.5c-0.1,0.2-0.3,0.4-0.5,0.6
	c-0.6,0.5-1.2,0.9-1.9,1.2c-0.9,0.5-1.8,1.1-2.7,1.7c-0.6,0.4-1.1,0.9-1.3,1.5c0,0.1,0,0.2,0.2,0.2c1.4,0.2,2.8-0.2,4.2,0
	c0.9,0,1.7,0.4,2.1,1.1c0.2,0.7,0.3,1.4,0.1,2.1c-0.3,1.1-0.4,2.3-0.3,3.5c0,0.5,0.1,1.1,0.3,1.6c0.1,0.5,0.3,1,0.4,1.5
	c0.1,0.3-0.1,0.3-0.2,0.1c-0.4-1-0.8-2-1-3.1c-0.1-1.5-0.1-3,0.1-4.4c0.1-1.6-1.2-1.5-2.4-1.5c-0.9,0-1.8,0.2-2.7,0.1
	c-0.6,0.1-1.1-0.1-1.6-0.4c-0.3-0.3-0.4-0.7-0.3-1.1c0.3-0.9,0.9-1.7,1.7-2.2c0.8-0.6,1.6-1.1,2.4-1.6l-2.3,0.8
	c-1.1,0.4-2.1,0.7-3.2,1c-0.9,0.1-2,0.2-2.4-0.7c-0.4-0.9,0.4-1.7,0.8-2.2l0.3-0.3c-0.6,0-1.2-0.5-1.3-1.1c0-0.3,0-0.6,0.1-0.8
	c-1.4,0.1-2-1.3-1.3-2.4c0.3-0.5,0.7-0.9,1.2-1.3c-0.4-0.3-0.6-0.8-0.5-1.3c0.3-1.6,2.8-3,4.2-4.1c-0.1-1.2,1.7-2.7,2.5-3.4
	c1.4-1.2,2.9-2.1,4.6-2.9c2.7-1.3,5.8-1.8,8.8-1.4c0.4,0.1,0.9,0.2,1.3,0.3C-4.5,217.9-4.4,218-5.1,217.8L-5.1,217.8z M-13.8,222.8
	c-1.5,0.4-2.9,0.9-4.2,1.7c-1.4,0.7-2.8,1.7-4,2.7c1.3-0.7,2.6-1.5,3.9-2.2C-16.7,224.2-15.2,223.5-13.8,222.8z M-15.8,221.4
	c2.6-0.7,5.2-1.2,7.8-1.6l1.1-0.2c-2.4-0.1-4.9,0.3-7.2,1.1C-14.7,220.9-15.2,221.1-15.8,221.4L-15.8,221.4z"/>
<path class="st0" d="M-10.3,240.8c2.5,1,5.2,1.7,7.9,2.1c0.9,0.2,1.9-0.1,2.6-0.7c0.6-0.7,1.2-1.4,1.6-2.2c0.2-0.2,0.2-0.2,0.2-0.1
	c0,0.3-0.1,0.6-0.2,0.9c-0.5,1.6-1.3,3.5-3.8,3.6c-0.1,0-0.2,0-0.3,0c0.1,1.4,0.5,3.3,1.8,4.3c1.2,0.8,2.6,1.3,4,1.3
	c2,0.2,3.2,0.1,5.6,0.4c2.8,0.4,7.2,1.1,9.4,2.9c0.5,0.4,0.3,0.9-0.3,0.6c-1.4-0.5-2.8-0.9-4.3-1.2c-4.1-0.9-9.6-0.3-12.7-1.3
	c-2.1-0.5-3.7-2.1-4.1-4.2c-0.2-1-0.2-2.1,0.1-3.1c-2.6-0.3-6-2.4-7.6-3.4C-10.5,240.9-10.6,240.7-10.3,240.8z"/>
<path class="st0" d="M-3.6,236.4c0.3,0,0.7,0,1-0.1c0.9-0.4,1.9-0.6,2.8-0.6c1,0.2,1.3,1,1.2,1.3c0,0.2-0.1,0.4-0.3,0.6
	c-0.1,0.1,0.1,0.6-0.1,0.9c-0.2,0.3-0.7,0.4-1.5,0.1s-1.9-1-2.6-1.3c-0.4-0.1-0.7-0.3-1-0.5c-0.1,0.1-0.3,0.2-0.4,0.2
	c-0.1,0-0.1,0,0-0.1c0.3-0.4,0.7-0.8,0.9-1.3c0.1-0.1,0,0,0,0c-0.1,0.2-0.1,0.4-0.2,0.5H-3.6z M-1.7,237c0.7,0.1,1.9,0.4,2.2,0.5
	s0.2-0.3-0.6-0.4C-0.7,237-1.2,237-1.7,237z"/>
<path class="st0" d="M-7.4,226.1l0.1-0.1c0.4-0.3,0.8-0.5,1.2-0.6c1-0.3,2.1-0.1,3,0.4c0.4,0.3,0.7,0.6,1,0.9c0,0,0.4,0.4,0.1,0.3
	c-0.5-0.3-1-0.5-1.6-0.7c-0.6-0.2-1.1-0.3-1.7-0.3c-0.6,0-1.2,0-1.8,0.2l-0.4,0.1C-7.6,226.2-7.6,226.2-7.4,226.1z"/>
<path class="st0" d="M-3.1,229.6c-0.2-0.1-0.4-0.1-0.6-0.2c-0.3-0.1-0.5-0.1-0.8-0.2c-0.1-0.2-0.1-0.3-0.1-0.5c0-0.1,0-0.3,0-0.3
	c-0.6-0.1-1.1,0-1.6,0.3c-0.1,0-0.1,0,0,0c0.3-0.4,0.8-0.7,1.3-0.7c0.4-0.1,0.9,0,1.3,0.2c0.3,0.2,0.5,0.4,0.6,0.8
	C-3.1,229.1-3.1,229.3-3.1,229.6z"/>
<path class="st0" d="M2.8,231.6c-0.2-0.2-0.5-0.3-0.8-0.4c0.5,0.5,0.8,1.2,0.6,1.9c-0.1,0.4-0.4,0.8-0.8,1c-0.3,0.2-0.5,0.4-0.7,0.6
	c-0.1,0.1-0.1,0.1-0.1,0c0.1-0.4,0.3-0.7,0.5-0.9c0.2-0.2,0.4-0.4,0.5-0.6c0.2-0.6-0.3-1.1-0.8-1.5c-0.1-0.1-0.2-0.2-0.3-0.3
	c-0.4-0.4-0.6-0.8-0.8-1.3c-0.2-0.5-0.2-1,0.1-1.4c0.3-0.4,0.8-0.7,1.3-0.7c0.5-0.1,0.9,0,1.4,0.1c0.3,0.1,0.6,0.3,0.8,0.5
	c0,0.1,0,0.1-0.1,0.1c-0.5-0.2-1-0.3-1.6-0.3c-0.5,0-0.9,0.2-1.2,0.6c-0.1,0.1-0.2,0.3-0.1,0.4c0,0.2,0.1,0.4,0.2,0.6
	c0,0.1,0.1,0.2,0.1,0.2l0,0l0.3-0.1c0.1,0,0.3,0,0.4,0c0.2,0,0.5,0,0.7,0.1c0.2,0.1,0.3,0.2,0.4,0.4C3,230.8,3,231,3,231.1
	C2.9,231.3,2.9,231.5,2.8,231.6z M1.2,230.4l0.3,0.3c0-0.1,0-0.2,0.1-0.3C1.5,230.4,1.3,230.4,1.2,230.4L1.2,230.4z"/>
<path class="st0" d="M64.9,260.8h-1c-1.2-0.1-2.2,0.8-2.2,2l-0.5,2.7h2.9l-0.4,1.6h-2.9l-2.5,12.5h-2l2.5-12.5h-1.7l0.3-1.5H59
	l0.6-2.8c0.6-2.9,2.4-3.6,4.1-3.6h1.5L64.9,260.8z"/>
<path class="st0" d="M73.7,268c-0.5-0.6-1.2-1-2-1c-2.1,0.2-3.8,1.8-4.1,3.9l-1.7,8.7h-2l2.8-14.2h2l-0.3,1.7c0.9-1.2,2.4-2,4-1.9
	c1.2-0.1,2.3,0.4,3.1,1.3L73.7,268z"/>
<path class="st0" d="M86.1,270l-1.9,9.5h-2l0.3-1.4c-1.1,1.1-2.5,1.7-4.1,1.6c-2.2,0-4.3-0.9-4.3-3.5c0-1.2,0.4-2.4,1.3-3.3
	c1.1-1.1,2.6-1.6,4.2-1.5h4.1l0.3-1.5c0.1-0.3,0.1-0.7,0.1-1c0-1.4-1.1-2.1-2.8-2.1c-1.5-0.1-2.9,0.6-3.8,1.7l-1.2-1.4
	c1.3-1.4,3.2-2.2,5.1-2c2,0,4.7,0.6,4.7,3.7C86.2,269.3,86.2,269.7,86.1,270z M79.9,273c-2.2,0-3.7,1.1-3.7,3.2
	c0,1.2,0.8,1.9,2.8,1.9c1.1,0,2.2-0.4,3-1.1c0.6-0.6,1-1.4,1.1-2.3l0.3-1.6H79.9z"/>
<path class="st0" d="M100.5,270.6l-1.8,9h-2l1.8-8.7c0.1-0.4,0.1-0.9,0.1-1.3c0.1-1.3-0.8-2.4-2.1-2.5c-0.2,0-0.3,0-0.5,0
	c-1,0-3.5,0.5-4.2,3.9l-1.7,8.7h-2l2.8-14.2h2l-0.3,1.6c1.1-1.2,2.6-1.8,4.2-1.7c2-0.1,3.8,1.5,3.9,3.5c0,0.2,0,0.3,0,0.5
	C100.7,269.7,100.6,270.2,100.5,270.6z"/>
<path class="st0" d="M113,268.6c-0.6-1-1.6-1.6-2.8-1.5c-1.2,0-2.3,0.5-3.1,1.4c-1,1.2-1.6,2.6-1.8,4.1c-0.2,0.7-0.2,1.4-0.2,2.1
	c0,2.4,1.5,3.4,3.1,3.4c1.3,0,2.6-0.6,3.4-1.6l1.1,1.4c-1.2,1.3-2.9,2-4.7,2c-3.3,0-5-2.2-5-5.1c0-0.7,0.1-1.5,0.2-2.2
	c0.9-4.7,3.6-7.2,7.2-7.2c1.6-0.1,3.2,0.7,4.1,2.1L113,268.6z"/>
<path class="st0" d="M126.6,273h-9.1c-0.1,0.6-0.2,1.2-0.2,1.8c0,1.9,0.9,3.2,3.1,3.2c1.5,0,3-0.6,4-1.7l1.2,1.4
	c-1.4,1.4-3.4,2.1-5.4,2.1c-2.8,0-4.8-1.6-4.8-4.9c0-4.3,2-9.6,7-9.6c3,0,4.6,2.2,4.6,4.9C126.9,271.1,126.8,272.1,126.6,273z
	 M122.3,267c-2.1,0-3.7,1.4-4.5,4.6h7.1c0.1-0.5,0.1-1,0.1-1.4C125,267.9,123.7,266.9,122.3,267L122.3,267z"/>
<path class="st0" d="M130.3,279.6h-2.6l0.5-2.7h2.6L130.3,279.6z"/>
<path class="st0" d="M141.1,260.9h-1c-1.2,0-2.2,0.8-2.2,2l-0.5,2.7h2.9l-0.3,1.5h-3l-2.5,12.5h-2l2.5-12.5h-1.7l0.3-1.5h1.7
	l0.6-2.8c0.6-2.9,2.4-3.6,4.1-3.6h1.5L141.1,260.9z"/>
<path class="st0" d="M149.9,268.2c-0.5-0.6-1.2-1-2-1c-2.1,0.1-3.8,1.8-4.1,3.9l-1.7,8.7h-2l2.8-14.2h2l-0.3,1.7
	c0.9-1.2,2.4-2,4-1.9c1.2,0,2.3,0.5,3,1.3L149.9,268.2z"/>
<g>
	<path class="st0" d="M0,59.2v-8.6h6v1.3H1.5v2.4h3.9v1.3H1.5v2.5H6v1.3H0z"/>
	<path class="st0" d="M14.2,59.2l-4.3-6.1L10,54v5.2H8.5v-8.6h1.4l4.3,6.2l-0.1-0.9v-5.3h1.5v8.6H14.2z"/>
	<path class="st0" d="M20.4,50.6h1.5v6.1c0,1.6-0.8,2.7-2.6,2.7c-0.9,0-1.4-0.3-1.4-0.3l0.2-1.2c0,0,0.4,0.2,1,0.2
		c0.9,0,1.3-0.5,1.3-1.4V50.6z"/>
	<path class="st0" d="M24.3,54.9c0-2.8,1.5-4.5,4.1-4.5c2.6,0,4,1.7,4,4.4c0,2.7-1.5,4.5-4.1,4.5C25.7,59.3,24.3,57.6,24.3,54.9z
		 M30.9,54.9c0-2.1-0.9-3.2-2.5-3.2c-1.6,0-2.6,1.1-2.6,3.2c0,2.1,1,3.2,2.6,3.2C29.9,58.1,30.9,56.9,30.9,54.9z"/>
	<path class="st0" d="M36.7,59.2v-3.2l-3.1-5.4h1.6l1.9,3.3l0.4,0.8l0.4-0.8l1.8-3.3h1.6l-3.1,5.4v3.2H36.7z"/>
	<path class="st0" d="M48.3,59.2v-7.3h-2.8v-1.3h7v1.3h-2.8v7.3H48.3z"/>
	<path class="st0" d="M60.1,59.2v-3.6h-4v3.6h-1.5v-8.6h1.5v3.7h4v-3.7h1.5v8.6H60.1z"/>
	<path class="st0" d="M64.2,59.2v-8.6h6v1.3h-4.5v2.4h3.9v1.3h-3.9v2.5h4.5v1.3H64.2z"/>
	<path class="st0" d="M82.3,50.6h1.5v5.1c0,2.4-1,3.7-3.5,3.7c-2.5,0-3.5-1.3-3.5-3.7v-5.1h1.5v5.1c0,1.4,0.5,2.4,2,2.4
		c1.6,0,2-0.9,2-2.4V50.6z"/>
	<path class="st0" d="M92.2,59.2l-4.3-6.1L88,54v5.2h-1.4v-8.6h1.4l4.3,6.2l-0.1-0.9v-5.3h1.5v8.6H92.2z"/>
	<path class="st0" d="M96.3,59.2v-8.6h6v1.3h-4.5v2.4h3.9v1.3h-3.9v2.5h4.5v1.3H96.3z"/>
	<path class="st0" d="M110.5,59.2l-2.2-3.2l-2.2,3.2h-1.7l3-4.3l-3-4.3h1.7l2.2,3.3l2.2-3.3h1.7l-3,4.4l3,4.2H110.5z"/>
	<path class="st0" d="M114.5,59.2v-8.6h3.3c2.5,0,3.2,1.2,3.2,2.8c0,1.5-0.7,2.9-3.2,2.9H116v2.9H114.5z M117.8,55
		c1.4,0,1.8-0.7,1.8-1.6c0-0.9-0.4-1.6-1.8-1.6H116V55H117.8z"/>
	<path class="st0" d="M123.5,59.2v-8.6h6v1.3H125v2.4h3.9v1.3H125v2.5h4.5v1.3H123.5z"/>
	<path class="st0" d="M136,58c0.9,0,1.7-0.3,1.7-0.3l0.2,1.2c0,0-0.8,0.4-2.1,0.4c-2.9,0-4.3-1.7-4.3-4.4c0-2.7,1.5-4.4,4.3-4.4
		c1.3,0,2.1,0.4,2.1,0.4l-0.2,1.2c0,0-0.7-0.3-1.7-0.3c-1.6,0-3,0.8-3,3.2C133,57.2,134.5,58,136,58z"/>
	<path class="st0" d="M142.7,59.2v-7.3h-2.8v-1.3h7v1.3h-2.8v7.3H142.7z"/>
	<path class="st0" d="M149,59.2v-8.6h6v1.3h-4.5v2.4h3.9v1.3h-3.9v2.5h4.5v1.3H149z"/>
	<path class="st0" d="M157.6,50.6h3c3.1,0,4.1,1.9,4.1,4.3c0,2.4-1.1,4.3-4.1,4.3h-3V50.6z M160.8,57.9c1.8,0,2.5-1.3,2.5-3
		c0-1.8-0.7-3-2.5-3H159v6.1H160.8z"/>
</g>
<g>
	<path class="st0" d="M26,19h-3.8H18h-2.2h-0.2v2.5c1.5,0,2.4,1.3,2.4,2.8l0,11.7l0-0.1v0c0,1.5,1.2,2.7,2.7,2.7h2.3v-6H26
		c6.4,0,7.8-3.8,7.8-7C33.7,21.2,31.2,19,26,19z M25.8,28.4h-2.7v-5.2h2.7c2.4,0,2.9,1,2.9,2.5C28.7,27.2,28.3,28.4,25.8,28.4z"/>
	<path class="st0" d="M52.5,25.6c0-4.5-2.4-6.6-7.7-6.6h-8.2v19.8h5v-6.6h2.5l3.5,6.6h5.5l-4-7.4C51.3,30.3,52.5,28.3,52.5,25.6z
		 M44.3,28h-2.7v-4.8h2.7c2.6,0,3.1,0.9,3.1,2.4C47.4,27.1,46.9,28,44.3,28z"/>
	<path class="st0" d="M64.4,18.7c-6,0-9.5,3.8-9.5,10.3c0,6.3,3.5,10.1,9.3,10.1c6,0,9.6-3.8,9.6-10.3
		C73.8,22.5,70.3,18.7,64.4,18.7z M64.4,34.8c-2.9,0-4.5-2.1-4.5-5.9c0-3.8,1.6-5.9,4.5-5.9c3.6,0,4.4,3.2,4.4,5.9
		C68.8,32.7,67.2,34.8,64.4,34.8z"/>
	<polygon class="st0" points="84,32 83.8,33 83.5,32 79.5,19 74.4,19 80.8,38.8 86.8,38.8 93.2,19 88,19 	"/>
	<path class="st0" d="M95.1,36c0,1.5,1.2,2.7,2.7,2.7h11.5v-4.3h-9.2v-3.5h8v-4.3h-8v-3.4h9.2V19H95.1V36z"/>
	<polygon class="st0" points="124.6,29.5 124.6,30.2 117.1,19 112.5,19 112.5,38.8 117.4,38.8 117.4,28.5 117.3,27.9 124.7,38.8 
		129.5,38.8 129.5,19 124.6,19 	"/>
	<path class="st0" d="M146.2,34.1c0,0-1.5,0.6-3.3,0.6c-2.1,0-5.6-0.8-5.6-5.9c0-5.1,3.5-5.8,5.5-5.8c1.9,0,3.3,0.6,3.3,0.6l0.5,0.2
		l0.7-4.2l-0.3-0.1c-0.1,0-1.7-0.8-4.7-0.8c-6.3,0-10.1,3.8-10.1,10.2c0,6.6,3.6,10.2,10,10.2c3,0,4.7-0.8,4.8-0.8l0.3-0.1l-0.7-4.2
		L146.2,34.1z"/>
	<path class="st0" d="M164.7,23.3V19h-14.3v17c0,1.5,1.2,2.7,2.7,2.7h11.5v-4.3h-9.2v-3.5h8v-4.3h-8v-3.4H164.7z"/>
</g>
<path class="st0" d="M199.1,79C193,79,188,74,188,67.9l0-47.4c0-6.1-5-11.1-11.1-11.1V0h1.1h43h0.6C237.3,0,250,12.7,250,28.5
	c0,15.7-12.7,28.5-28.5,28.5H221h-11.9v16.4V79H199.1z"/>
</svg>
